<!DOCTYPE svg PUBLIC "-//W3C//DTD SVG 1.1//EN" "http://www.w3.org/Graphics/SVG/1.1/DTD/svg11.dtd">
<!-- Uploaded to: SVG Repo, www.svgrepo.com, Transformed by: SVG Repo Mixer Tools -->
<svg fill="#116482" version="1.1" id="Layer_1" xmlns="http://www.w3.org/2000/svg" xmlns:xlink="http://www.w3.org/1999/xlink" viewBox="0 0 226.262 226.262" xml:space="preserve" width="800px" height="800px">
<g id="SVGRepo_bgCarrier" stroke-width="0"/>
<g id="SVGRepo_tracerCarrier" stroke-linecap="round" stroke-linejoin="round"/>
<g id="SVGRepo_iconCarrier"> <g> <g> <g> <path d="M126.777,71.599c-4.22,0.548-9.002,1.172-13.646,1.172c-4.644,0-9.426-0.623-13.646-1.172 c-7.361-0.963-12.685-1.649-16.304,0.635c-11.46,7.244-13.802,26.05-5.549,43.233c-0.481,3.555-0.724,7.533-0.724,11.849 c0,19.922,5.475,38.782,14.644,50.446c1.032,1.314,2.768,1.85,4.36,1.365c1.596-0.489,2.726-1.91,2.847-3.575 c1.884-26.259,9.556-40.242,14.372-40.242c4.869,0,12.585,14.153,14.408,40.724c0.112,1.657,1.229,3.074,2.811,3.575 c0.4,0.126,0.813,0.189,1.219,0.189c1.196,0,2.356-0.533,3.137-1.495c9.442-11.632,15.078-30.694,15.078-50.986 c0-4.537-0.296-8.708-0.88-12.429c7.895-16.986,5.435-35.535-5.824-42.649C139.461,69.946,134.144,70.644,126.777,71.599z M138.763,79.068c7.939,5.015,8.982,20.013,2.326,33.432c-0.385,0.777-0.511,1.661-0.355,2.514 c0.643,3.567,0.971,7.706,0.971,12.303c0,13.585-2.675,26.444-7.388,36.375c-2.827-18.718-9.499-36.462-21.185-36.462 c-11.524,0-18.186,17.357-21.074,35.76c-4.51-9.844-7.069-22.447-7.069-35.673c0-4.431,0.274-8.428,0.813-11.888 c0.132-0.84-0.006-1.705-0.393-2.462c-6.818-13.348-5.861-28.875,2.079-33.894c1.312-0.714,6.889,0.012,10.955,0.541 c4.463,0.58,9.519,1.239,14.688,1.239c5.169,0,10.227-0.659,14.69-1.239C131.889,79.084,137.455,78.35,138.763,79.068z"/> <path d="M222.222,14.141H4.04c-2.231,0-4.04,1.807-4.04,4.04v189.899c0,2.233,1.809,4.04,4.04,4.04h218.182 c2.231,0,4.04-1.807,4.04-4.04V18.183C226.263,15.949,224.453,14.141,222.222,14.141z M218.182,204.04H8.081V22.222h210.101 V204.04z"/> <rect x="18.182" y="30.303" width="80.92" height="8.081"/> <rect x="18.182" y="46.466" width="50.505" height="8.081"/> <rect x="86.869" y="46.466" width="50.505" height="8.081"/> </g> </g> </g> </g>
</svg>